<svg width="720" height="720" viewBox="0 0 720 720" fill="none" xmlns="http://www.w3.org/2000/svg">
  <rect width="720" height="720" rx="120" fill="#0F172A"/>
  <rect x="80" y="80" width="560" height="560" rx="100" fill="#111827"/>
  <circle cx="360" cy="260" r="86" fill="#E2E8F0"/>
  <path d="M220 520C240 440 300 392 360 392C420 392 480 440 500 520" fill="#1F2937"/>
  <path d="M300 520L360 430L420 520" fill="#0EA5E9"/>
  <path d="M360 430L330 520H390L360 430Z" fill="#0B4B6E"/>
  <path d="M310 220C326 196 350 182 360 182C370 182 394 196 410 220" stroke="#0F172A" stroke-width="18" stroke-linecap="round"/>
  <path d="M270 330H450" stroke="#94A3B8" stroke-width="14" stroke-linecap="round"/>
  <path d="M240 560H480" stroke="#334155" stroke-width="20" stroke-linecap="round"/>
</svg>
